PathFileType	4	(X/Y/Z)	/Users/itak/Documents/Research/Walk-IL/dataset/trc/00524_00183.trc
DataRate	CameraRate	NumFrames	NumMarkers	Units	OrigDataRate	OrigDataStartFrame	OrigNumFrames
100.000000	100.000000	4	53	mm	100.000000	278	557
Frame#	Time	RPSI			LPSI			L3			STRN			T10			C7			CLAV			RBAK			LBAK			LSHO			LUPA			LAEL			LAOL			LWTS			LWPS			LFRA			LIFD			LHPS			LHTS			RSHO			RUPA			RAEL			RAOL			RWTS			RWPS			RFRA			RIFD			RHTS			RHPS			RBHD			LFHD			RFHD			LBHD			LHIP			RHIP			RASI			LASI			LKNE			LTHI			LANK			LTIP			LTOE			LMT1			LMT5			LHEE			RKNE			RTHI			RANK			RTIP			RTOE			RMT1			RMT5			RHEE			
		X1	Y1	Z1	X2	Y2	Z2	X3	Y3	Z3	X4	Y4	Z4	X5	Y5	Z5	X6	Y6	Z6	X7	Y7	Z7	X8	Y8	Z8	X9	Y9	Z9	X10	Y10	Z10	X11	Y11	Z11	X12	Y12	Z12	X13	Y13	Z13	X14	Y14	Z14	X15	Y15	Z15	X16	Y16	Z16	X17	Y17	Z17	X18	Y18	Z18	X19	Y19	Z19	X20	Y20	Z20	X21	Y21	Z21	X22	Y22	Z22	X23	Y23	Z23	X24	Y24	Z24	X25	Y25	Z25	X26	Y26	Z26	X27	Y27	Z27	X28	Y28	Z28	X29	Y29	Z29	X30	Y30	Z30	X31	Y31	Z31	X32	Y32	Z32	X33	Y33	Z33	X34	Y34	Z34	X35	Y35	Z35	X36	Y36	Z36	X37	Y37	Z37	X38	Y38	Z38	X39	Y39	Z39	X40	Y40	Z40	X41	Y41	Z41	X42	Y42	Z42	X43	Y43	Z43	X44	Y44	Z44	X45	Y45	Z45	X46	Y46	Z46	X47	Y47	Z47	X48	Y48	Z48	X49	Y49	Z49	X50	Y50	Z50	X51	Y51	Z51	X52	Y52	Z52	X53	Y53	Z53	

279	2.78	-405.725830078125	942.6293334960938	-50.61404800415039	-343.0565795898438	940.6533203125	-158.1266479492188	-375.9930114746094	1013.783630371094	-99.13038635253906	-178.4967956542969	1172.72412109375	-7.924412727355957	-391.9921264648438	1117.68017578125	-95.64651489257812	-354.3946228027344	1347.120727539062	-71.91448974609375	-210.9463653564453	1267.907592773438	-20.05929946899414	-430.0714721679688	1224.028564453125	-10.86881256103516	-347.8060302734375	1294.630126953125	-163.3312225341797	-233.0249786376953	1339.507934570312	-198.5052490234375	-226.6827392578125	1214.430541992188	-263.2243347167969	-221.3358764648438	1005.674621582031	-291.4033508300781	-311.8670043945312	1000.357299804688	-249.3200225830078	-149.8697662353516	814.313232421875	-231.9876403808594	-212.5541534423828	782.1876831054688	-293.8625183105469	-204.1447601318359	928.6677856445312	-288.9609069824219	-158.5589904785156	655.5654907226562	-222.5579376220703	-194.6170043945312	726.3377075195312	-280.6212768554688	-140.3168182373047	734.5181884765625	-248.0544891357422	-355.0650024414062	1339.19873046875	86.15242767333984	-392.1882934570312	1271.9345703125	132.5475616455078	-407.9462585449219	1004.140319824219	173.0325164794922	-443.0721435546875	988.7393188476562	118.9790954589844	-296.6773986816406	805.2429809570312	180.0877685546875	-384.5184020996094	780.1321411132812	191.4272308349609	-405.6534423828125	949.3731689453125	180.7388916015625	-293.5904235839844	643.9166259765625	182.3545989990234	-291.2596740722656	710.8129272460938	206.8262023925781	-361.974365234375	706.3060302734375	198.8897857666016	-343.4579467773438	1503.847290039062	15.72227191925049	-174.2453155517578	1560.5234375	-74.43833923339844	-222.3660278320312	1563.613525390625	43.2347297668457	-296.7779235839844	1495.12939453125	-135.9913024902344	-178.7851104736328	872.6355590820312	-210.3675384521484	-386.7625732421875	838.2635498046875	106.8782653808594	-263.6586303710938	880.1258544921875	108.01611328125	-143.9508666992188	906.117919921875	-101.0407791137695	-73.10507202148438	480.3269958496094	-73.67886352539062	-98.05281066894531	627.4781494140625	-130.2893524169922	-104.317512512207	47.06117630004883	-70.87532806396484	-67.64778900146484	324.5666198730469	-72.59915161132812	29.57182693481445	56.35947036743164	78.11466217041016	-48.28596496582031	45.97186660766602	70.50934600830078	-7.757382392883301	47.43314361572266	-24.30081367492676	-172.6143493652344	43.55360412597656	-36.62562561035156	-411.2347717285156	461.1332397460938	34.21928024291992	-372.1950378417969	706.5462036132812	108.5911407470703	-667.4266967773438	128.5589599609375	-123.7594299316406	-466.2962036132812	329.1552124023438	-6.614503383636475	-504.8254699707031	39.89283752441406	-117.7482223510742	-536.2681884765625	69.23314666748047	-167.5829620361328	-591.9647216796875	52.43022537231445	-88.15168762207031	-688.2218017578125	165.3848114013672	-180.1442718505859	
280	2.79	-396.6260070800781	943.3296508789062	-47.13772964477539	-333.7932434082031	942.046875	-154.4988250732422	-366.7984008789062	1015.034484863281	-95.46424102783203	-169.3388366699219	1174.351440429688	-4.978171825408936	-382.8865051269531	1118.881713867188	-92.07881164550781	-345.7152099609375	1348.396606445312	-68.68925476074219	-202.0201263427734	1269.4658203125	-17.0488338470459	-421.0495910644531	1225.249267578125	-7.417295455932617	-339.0848999023438	1295.902709960938	-160.0361633300781	-224.5049285888672	1341.072265625	-195.4160919189453	-218.0508575439453	1216.027221679688	-260.1213684082031	-212.3857727050781	1007.270141601562	-287.9197082519531	-302.8037719726562	1001.742919921875	-245.6150970458984	-140.2039642333984	816.2391357421875	-227.8813323974609	-202.1100463867188	783.9200439453125	-290.3784790039062	-194.8515319824219	930.3902587890625	-285.4161376953125	-148.1115570068359	657.5001831054688	-218.7850646972656	-184.0047607421875	728.1441040039062	-277.1194152832031	-130.0889587402344	736.5572509765625	-244.0162963867188	-345.9940185546875	1340.560791015625	89.34223937988281	-383.0527954101562	1273.41064453125	135.8491516113281	-399.9497680664062	1005.679870605469	175.4819030761719	-434.6524963378906	990.6300048828125	121.073844909668	-290.2712707519531	805.9125366210938	183.203369140625	-378.4128112792969	781.4478759765625	193.7548217773438	-398.108642578125	950.9451904296875	183.0856170654297	-288.4898376464844	644.5302124023438	185.0777587890625	-285.826416015625	711.3615112304688	209.7767028808594	-356.4678344726562	707.4715576171875	201.1732025146484	-335.4425964355469	1504.968872070312	18.70684814453125	-166.4181671142578	1562.300903320312	-71.43413543701172	-214.6191253662109	1565.28662109375	46.19954681396484	-288.6426391601562	1496.305419921875	-132.9868316650391	-169.3559417724609	874.5157470703125	-207.0399780273438	-376.9477844238281	838.4556884765625	110.2979278564453	-254.0083465576172	881.1964111328125	111.1502304077148	-134.3450622558594	907.964599609375	-97.76927185058594	-67.57666778564453	480.1409606933594	-70.97303771972656	-90.27460479736328	628.1865234375	-127.0546035766602	-103.9711608886719	47.23340606689453	-70.53533935546875	-63.73988342285156	324.2306213378906	-70.43994140625	30.36325645446777	54.55405807495117	79.14731597900391	-47.9342041015625	45.20125579833984	70.8079833984375	-7.353471279144287	47.18415832519531	-23.77156829833984	-172.3382110595703	43.8143310546875	-36.45031356811523	-396.5103149414062	460.3416137695312	42.12639999389648	-360.8529663085938	706.8300170898438	112.5910873413086	-660.47509765625	136.3246459960938	-117.3664627075195	-453.1592712402344	329.6329040527344	1.4415043592453	-503.0272521972656	39.17793655395508	-116.5056533813477	-533.0162353515625	72.09516143798828	-164.7379150390625	-588.64404296875	54.95528030395508	-85.27423858642578	-680.0317993164062	175.655517578125	-172.3061828613281	
281	2.8	-387.7516174316406	943.9869384765625	-43.85626983642578	-324.6862487792969	943.4188842773438	-151.0211639404297	-357.7351379394531	1016.3134765625	-91.97859954833984	-160.3575897216797	1175.949462890625	-1.972939372062683	-373.8614196777344	1120.138671875	-88.66450500488281	-337.0983581542969	1349.708251953125	-65.50759124755859	-193.218017578125	1271.009399414062	-13.98823165893555	-412.1858215332031	1226.500366210938	-4.098235130310059	-330.3682556152344	1297.216064453125	-156.8216705322266	-215.9503784179688	1342.650634765625	-192.2657318115234	-209.3488464355469	1217.651489257812	-257.0110473632812	-203.1568298339844	1008.844299316406	-284.4122314453125	-293.6279296875	1003.151062011719	-242.2731170654297	-130.5532379150391	818.2483520507812	-223.3168334960938	-190.9996032714844	785.83740234375	-287.0880432128906	-185.1887664794922	932.2236938476562	-281.7683715820312	-137.5069885253906	659.5184326171875	-215.1522827148438	-172.6937255859375	730.196533203125	-273.8879089355469	-119.5539703369141	738.809326171875	-239.6075592041016	-337.1244201660156	1341.927001953125	92.48442077636719	-374.1356811523438	1274.865600585938	139.0933380126953	-391.9512023925781	1007.219604492188	178.0265045166016	-426.3065185546875	992.4652099609375	123.3419799804688	-283.7968444824219	806.6076049804688	186.2852172851562	-372.2185363769531	782.7727661132812	196.1761474609375	-390.5247192382812	952.5112915039062	185.54296875	-283.3111267089844	645.1778564453125	187.6967926025391	-280.2608032226562	711.9241943359375	212.6267395019531	-350.8758850097656	708.6530151367188	203.5121917724609	-327.4985656738281	1506.086791992188	21.72928619384766	-158.6696319580078	1564.115600585938	-68.37977600097656	-206.9600982666016	1566.9560546875	49.2236213684082	-280.5706787109375	1497.52734375	-129.9548187255859	-160.0363006591797	876.3286743164062	-203.7370147705078	-367.4477844238281	838.6864013671875	113.5805053710938	-244.7378082275391	882.34912109375	114.2505416870117	-124.9582443237305	909.713134765625	-94.48143768310547	-62.76206970214844	479.7380676269531	-68.80637359619141	-83.07144927978516	628.5667724609375	-124.2328567504883	-103.7378768920898	47.34635543823242	-70.22761535644531	-60.50561904907227	323.7664184570312	-68.80979156494141	31.07050895690918	52.98735809326172	80.04002380371094	-47.64122009277344	44.59463119506836	71.02964019775391	-7.031740665435791	46.97536468505859	-23.31331443786621	-172.1900634765625	43.9972038269043	-36.28954696655273	-381.3649597167969	459.3869934082031	50.55977630615234	-349.7074584960938	707.1846923828125	116.6117095947266	-652.625732421875	144.5252075195312	-110.6399078369141	-439.2962036132812	330.1573181152344	9.746230125427246	-500.5169677734375	38.40834808349609	-114.4884796142578	-528.9481811523438	75.3427734375	-161.2136840820312	-584.7698974609375	58.31250762939453	-81.80451202392578	-670.8225708007812	186.0939483642578	-164.2464141845703	
282	2.81	-379.1043090820312	944.604248046875	-40.76012420654297	-315.7401733398438	944.7877197265625	-147.6830291748047	-348.8173217773438	1017.61083984375	-88.68513488769531	-151.5757293701172	1177.495361328125	1.121143579483032	-364.9313049316406	1121.431396484375	-85.41156768798828	-328.5560607910156	1351.035766601562	-62.37291717529297	-184.5601196289062	1272.515625	-10.86118030548096	-403.4947509765625	1227.760131835938	-0.9266302585601807	-321.6696166992188	1298.547973632812	-153.6935119628906	-207.3594055175781	1344.2109375	-189.0464477539062	-200.5650939941406	1219.269165039062	-253.8813018798828	-193.6375274658203	1010.373840332031	-280.8883056640625	-284.3310241699219	1004.556396484375	-239.3148193359375	-120.9632415771484	820.2919921875	-218.3673248291016	-179.2884674072266	787.916015625	-283.9780578613281	-175.1753540039062	934.125	-278.0314331054688	-126.7223052978516	661.58154296875	-211.6996307373047	-160.7522277832031	732.4640502929688	-270.9071960449219	-108.763542175293	741.2321166992188	-234.8901824951172	-328.4959716796875	1343.275634765625	95.58338165283203	-365.4817199707031	1276.267822265625	142.2621002197266	-383.9676513671875	1008.721252441406	180.6854400634766	-418.0661010742188	994.19873046875	125.8060684204102	-277.2400512695312	807.315185546875	189.3266296386719	-365.9164733886719	784.0834350585938	198.7092437744141	-382.9103088378906	954.0361938476562	188.1380920410156	-278.0127563476562	645.8495483398438	190.2408752441406	-274.52783203125	712.4951782226562	215.3880157470703	-345.1760559082031	709.828125	205.9484405517578	-319.6324462890625	1507.192016601562	24.78594398498535	-150.999755859375	1565.940307617188	-65.27218627929688	-199.3886566162109	1568.60302734375	52.31018829345703	-272.5657043457031	1498.777465820312	-126.8970031738281	-150.8441619873047	878.06787109375	-200.4532470703125	-358.28564453125	838.9622802734375	116.7342376708984	-235.8759460449219	883.55859375	117.3299255371094	-115.8099822998047	911.3372192382812	-91.1622314453125	-58.57711791992188	479.185791015625	-67.13057708740234	-76.42198944091797	628.6848754882812	-121.7798156738281	-103.5777587890625	47.41381072998047	-69.94789123535156	-57.84300231933594	323.218505859375	-67.667236328125	31.69028091430664	51.60917282104492	80.80873107910156	-47.39898681640625	44.10876083374023	71.19215393066406	-6.765331745147705	46.77999114990234	-22.90883445739746	-172.1354064941406	44.12197113037109	-36.15328979492188	-365.8849487304688	458.36962890625	59.36800384521484	-338.789306640625	707.6134033203125	120.6276245117188	-643.8493041992188	153.008056640625	-103.6755905151367	-424.7928161621094	330.7864074707031	18.1988639831543	-497.1631774902344	37.70141220092773	-111.4097900390625	-523.88720703125	78.86874389648438	-156.8341217041016	-580.2012329101562	62.50031661987305	-77.62029266357422	-660.5422973632812	196.45556640625	-156.1804504394531	
